<svg width="160" height="90" viewBox="0 40 440 90" fill="none" xmlns="http://www.w3.org/2000/svg"><g clip-path="url(#clip0_58_31)"><path d="M118.431 61.6376C119.354 65.0807 119.107 68.7327 117.73 72.0204C116.353 75.3082 113.923 78.0457 110.822 79.8033C107.721 81.5609 104.124 82.2392 100.596 81.7317C97.0675 81.2242 93.8075 79.5596 91.3275 76.9992C88.8475 74.4388 87.2878 71.1275 86.893 67.5848C86.4983 64.0422 87.2909 60.4687 89.1465 57.4252C91.0021 54.3818 93.8157 52.0405 97.1457 50.7688C100.476 49.4971 104.134 49.367 107.546 50.3989L102.887 65.8027L118.431 61.6376Z" fill="white"></path><path fill-rule="evenodd" clip-rule="evenodd" d="M115.535 23.48C133.181 25.2294 148.882 45.2515 148.882 66.2062C148.882 77.414 141.806 91.2183 133.181 94.6209C138.533 87.1212 141.806 77.1571 141.806 66.2062C141.806 42.6946 126.787 23.9129 108.565 23.9129L108.495 22.6001C119.441 21.4392 136.976 22.1868 155.169 27.9341C173.368 33.6833 192.263 44.4485 205.861 63.3522L206.043 63.6052L205.962 63.9062C197.944 93.9767 144.356 149.226 27.7046 124.303C148.217 143.625 183.933 91.712 191.174 63.8675C181.136 49.0907 166.201 37.2269 153.325 32.3055C141.888 27.9341 126.105 23.2314 115.535 23.48Z" fill="white"></path><path fill-rule="evenodd" clip-rule="evenodd" d="M90.5076 107.52C72.8614 105.771 58.7021 83.6486 58.7021 64.794C58.7021 53.5863 66.2719 41.1919 72.8614 36.3794C67.5094 43.879 64.2365 53.8431 64.2365 64.794C64.2365 88.3057 79.2559 107.087 97.4779 107.087L97.5473 108.4C86.6013 109.561 69.0663 108.813 50.8734 103.066C32.6744 97.3169 13.7793 86.5518 0.181786 67.648L-0.000150487 67.3951L0.0801211 67.094C8.09891 37.0235 61.6863 -18.2257 178.338 6.69693C57.8255 -12.6243 21.6759 38.3607 14.4353 66.2052C24.4735 80.9819 39.8414 93.7733 52.7173 98.6948C64.1543 103.066 79.9374 107.769 90.5076 107.52Z" fill="white"></path><path d="M237.403 97.0664L226.363 71.0504H221.803L237.403 106.33L253.003 71.0504H248.443L237.403 97.0664ZM253.797 97.8344C253.797 97.0344 253.989 96.3464 254.373 95.7704C254.757 95.1944 255.333 94.7464 256.101 94.4264C256.901 94.1064 257.925 93.9464 259.173 93.9464C260.517 93.9464 261.781 94.1224 262.965 94.4744C264.149 94.7944 265.301 95.3384 266.421 96.1064V93.8504C266.197 93.5624 265.765 93.1944 265.125 92.7464C264.485 92.2664 263.621 91.8504 262.533 91.4984C261.477 91.1144 260.149 90.9224 258.549 90.9224C255.829 90.9224 253.701 91.5784 252.165 92.8904C250.661 94.1704 249.909 95.8824 249.909 98.0264C249.909 99.5304 250.261 100.81 250.965 101.866C251.669 102.922 252.597 103.738 253.749 104.314C254.933 104.858 256.197 105.13 257.541 105.13C258.757 105.13 259.973 104.906 261.189 104.458C262.437 104.01 263.477 103.322 264.309 102.394C265.173 101.466 265.605 100.298 265.605 98.8904L264.837 96.0104C264.837 97.1624 264.549 98.1864 263.973 99.0824C263.429 99.9464 262.677 100.618 261.717 101.098C260.789 101.578 259.733 101.818 258.549 101.818C257.621 101.818 256.789 101.674 256.053 101.386C255.349 101.066 254.789 100.602 254.373 99.9944C253.989 99.3864 253.797 98.6664 253.797 97.8344ZM253.221 87.6584C253.573 87.4024 254.053 87.0984 254.661 86.7464C255.269 86.3944 256.005 86.0904 256.869 85.8344C257.765 85.5784 258.757 85.4504 259.845 85.4504C260.517 85.4504 261.157 85.5144 261.765 85.6424C262.373 85.7704 262.901 85.9784 263.349 86.2664C263.829 86.5544 264.197 86.9544 264.453 87.4664C264.709 87.9464 264.837 88.5704 264.837 89.3384V104.65H268.677V88.8104C268.677 87.3704 268.309 86.1544 267.573 85.1624C266.869 84.1704 265.861 83.4184 264.549 82.9064C263.269 82.3624 261.765 82.0904 260.037 82.0904C257.989 82.0904 256.229 82.3944 254.757 83.0024C253.317 83.6104 252.181 84.2184 251.349 84.8264L253.221 87.6584ZM289.338 91.2104V104.65H293.178V90.7304C293.178 88.0744 292.49 85.9784 291.114 84.4424C289.77 82.8744 287.93 82.0904 285.594 82.0904C284.154 82.0904 282.874 82.4104 281.754 83.0504C280.666 83.6904 279.754 84.6824 279.018 86.0264V82.5704H275.178V104.65H279.018V91.2104C279.018 90.1224 279.242 89.1624 279.69 88.3304C280.17 87.4984 280.826 86.8584 281.658 86.4104C282.522 85.9304 283.514 85.6904 284.634 85.6904C286.17 85.6904 287.338 86.1544 288.138 87.0824C288.938 88.0104 289.338 89.3864 289.338 91.2104ZM298.909 106.09C298.909 107.978 299.373 109.642 300.301 111.082C301.229 112.554 302.509 113.69 304.141 114.49C305.805 115.29 307.709 115.69 309.853 115.69C311.709 115.69 313.469 115.258 315.133 114.394C316.797 113.53 318.157 112.234 319.213 110.506C320.269 108.81 320.797 106.698 320.797 104.17V82.5704H316.957V104.17C316.957 106.026 316.589 107.53 315.853 108.682C315.149 109.866 314.253 110.73 313.165 111.274C312.077 111.818 310.973 112.09 309.853 112.09C308.413 112.09 307.165 111.802 306.109 111.226C305.053 110.682 304.237 109.946 303.661 109.018C303.085 108.122 302.797 107.146 302.797 106.09H298.909ZM298.477 93.6104C298.477 95.9784 298.973 98.0264 299.965 99.7544C300.957 101.482 302.285 102.81 303.949 103.738C305.613 104.666 307.437 105.13 309.421 105.13C311.277 105.13 312.893 104.666 314.269 103.738C315.645 102.81 316.717 101.482 317.485 99.7544C318.285 98.0264 318.685 95.9784 318.685 93.6104C318.685 91.2104 318.285 89.1624 317.485 87.4664C316.717 85.7384 315.645 84.4104 314.269 83.4824C312.893 82.5544 311.277 82.0904 309.421 82.0904C307.437 82.0904 305.613 82.5544 303.949 83.4824C302.285 84.4104 300.957 85.7384 299.965 87.4664C298.973 89.1624 298.477 91.2104 298.477 93.6104ZM302.365 93.6104C302.365 91.9144 302.701 90.4744 303.373 89.2904C304.077 88.1064 305.005 87.2104 306.157 86.6024C307.309 85.9944 308.557 85.6904 309.901 85.6904C310.733 85.6904 311.565 85.8664 312.397 86.2184C313.229 86.5704 313.981 87.0824 314.653 87.7544C315.357 88.4264 315.917 89.2584 316.333 90.2504C316.749 91.2104 316.957 92.3304 316.957 93.6104C316.957 95.3064 316.605 96.7464 315.901 97.9304C315.197 99.1144 314.301 100.01 313.213 100.618C312.125 101.226 311.021 101.53 309.901 101.53C308.557 101.53 307.309 101.226 306.157 100.618C305.005 100.01 304.077 99.1144 303.373 97.9304C302.701 96.7464 302.365 95.3064 302.365 93.6104ZM331.612 96.0104V82.5704H327.772V96.4904C327.772 99.1144 328.46 101.21 329.836 102.778C331.212 104.346 333.052 105.13 335.356 105.13C336.828 105.13 338.108 104.81 339.196 104.17C340.284 103.498 341.196 102.506 341.932 101.194V104.65H345.772V82.5704H341.932V96.0104C341.932 97.0984 341.692 98.0584 341.212 98.8904C340.764 99.7224 340.108 100.378 339.244 100.858C338.412 101.306 337.436 101.53 336.316 101.53C334.78 101.53 333.612 101.05 332.812 100.09C332.012 99.1304 331.612 97.7704 331.612 96.0104ZM354.719 97.8344C354.719 97.0344 354.911 96.3464 355.295 95.7704C355.679 95.1944 356.255 94.7464 357.023 94.4264C357.823 94.1064 358.847 93.9464 360.095 93.9464C361.439 93.9464 362.703 94.1224 363.887 94.4744C365.071 94.7944 366.223 95.3384 367.343 96.1064V93.8504C367.119 93.5624 366.687 93.1944 366.047 92.7464C365.407 92.2664 364.543 91.8504 363.455 91.4984C362.399 91.1144 361.071 90.9224 359.471 90.9224C356.751 90.9224 354.623 91.5784 353.087 92.8904C351.583 94.1704 350.831 95.8824 350.831 98.0264C350.831 99.5304 351.183 100.81 351.887 101.866C352.591 102.922 353.519 103.738 354.671 104.314C355.855 104.858 357.119 105.13 358.463 105.13C359.679 105.13 360.895 104.906 362.111 104.458C363.359 104.01 364.399 103.322 365.231 102.394C366.095 101.466 366.527 100.298 366.527 98.8904L365.759 96.0104C365.759 97.1624 365.471 98.1864 364.895 99.0824C364.351 99.9464 363.599 100.618 362.639 101.098C361.711 101.578 360.655 101.818 359.471 101.818C358.543 101.818 357.711 101.674 356.975 101.386C356.271 101.066 355.711 100.602 355.295 99.9944C354.911 99.3864 354.719 98.6664 354.719 97.8344ZM354.143 87.6584C354.495 87.4024 354.975 87.0984 355.583 86.7464C356.191 86.3944 356.927 86.0904 357.791 85.8344C358.687 85.5784 359.679 85.4504 360.767 85.4504C361.439 85.4504 362.079 85.5144 362.687 85.6424C363.295 85.7704 363.823 85.9784 364.271 86.2664C364.751 86.5544 365.119 86.9544 365.375 87.4664C365.631 87.9464 365.759 88.5704 365.759 89.3384V104.65H369.599V88.8104C369.599 87.3704 369.231 86.1544 368.495 85.1624C367.791 84.1704 366.783 83.4184 365.471 82.9064C364.191 82.3624 362.687 82.0904 360.959 82.0904C358.911 82.0904 357.151 82.3944 355.679 83.0024C354.239 83.6104 353.103 84.2184 352.271 84.8264L354.143 87.6584ZM379.94 82.5704H376.1V104.65H379.94V82.5704ZM386.612 86.7944L388.724 83.6264C388.148 83.0184 387.508 82.6184 386.804 82.4264C386.132 82.2024 385.396 82.0904 384.596 82.0904C383.572 82.0904 382.564 82.4904 381.572 83.2904C380.58 84.0904 379.764 85.1784 379.124 86.5544C378.516 87.8984 378.212 89.4504 378.212 91.2104H379.94C379.94 90.1544 380.036 89.2104 380.228 88.3784C380.452 87.5464 380.836 86.8904 381.38 86.4104C381.924 85.9304 382.676 85.6904 383.636 85.6904C384.276 85.6904 384.804 85.7864 385.22 85.9784C385.636 86.1384 386.1 86.4104 386.612 86.7944ZM409.113 67.2104V104.65H412.953V67.2104H409.113ZM390.633 93.6104C390.633 95.9784 391.129 98.0264 392.121 99.7544C393.113 101.482 394.441 102.81 396.105 103.738C397.769 104.666 399.593 105.13 401.577 105.13C403.433 105.13 405.049 104.666 406.425 103.738C407.801 102.81 408.873 101.482 409.641 99.7544C410.441 98.0264 410.841 95.9784 410.841 93.6104C410.841 91.2104 410.441 89.1624 409.641 87.4664C408.873 85.7384 407.801 84.4104 406.425 83.4824C405.049 82.5544 403.433 82.0904 401.577 82.0904C399.593 82.0904 397.769 82.5544 396.105 83.4824C394.441 84.4104 393.113 85.7384 392.121 87.4664C391.129 89.1624 390.633 91.2104 390.633 93.6104ZM394.521 93.6104C394.521 91.9144 394.857 90.4744 395.529 89.2904C396.233 88.1064 397.161 87.2104 398.313 86.6024C399.465 85.9944 400.713 85.6904 402.057 85.6904C403.177 85.6904 404.281 85.9944 405.369 86.6024C406.457 87.2104 407.353 88.1064 408.057 89.2904C408.761 90.4744 409.113 91.9144 409.113 93.6104C409.113 95.3064 408.761 96.7464 408.057 97.9304C407.353 99.1144 406.457 100.01 405.369 100.618C404.281 101.226 403.177 101.53 402.057 101.53C400.713 101.53 399.465 101.226 398.313 100.618C397.161 100.01 396.233 99.1144 395.529 97.9304C394.857 96.7464 394.521 95.3064 394.521 93.6104Z" fill="white"></path><path d="M309.891 70.3369H323.619V68.0329H312.291V47.9369H309.891V70.3369ZM333.051 54.4649C328.539 54.4649 325.019 57.9849 325.019 62.5609C325.019 67.1369 328.539 70.6569 333.051 70.6569C337.563 70.6569 341.115 67.1369 341.115 62.5609C341.115 57.9849 337.563 54.4649 333.051 54.4649ZM333.051 56.6729C336.283 56.6729 338.811 59.2329 338.811 62.5609C338.811 65.8569 336.283 68.4489 333.051 68.4489C329.819 68.4489 327.323 65.8569 327.323 62.5609C327.323 59.2329 329.819 56.6729 333.051 56.6729ZM350.023 70.3369L354.439 58.1129L358.855 70.3369H360.775L366.471 54.7849H363.975L359.815 67.0089L355.399 54.7849H353.479L349.095 67.0089L344.935 54.7849H342.439L348.135 70.3369H350.023ZM383.16 61.8569C383.16 57.6969 379.928 54.4649 375.736 54.4649C371.32 54.4649 367.832 57.9849 367.832 62.4649C367.832 67.1689 371.384 70.6569 375.768 70.6569C378.936 70.6569 381.56 69.3129 382.744 67.1689L380.888 65.9849C379.992 67.5849 378.072 68.5449 375.832 68.5449C372.696 68.5449 370.36 66.3369 370.136 62.9769H383.096C383.128 62.6889 383.16 62.1449 383.16 61.8569ZM370.232 60.9929C370.776 58.3049 372.888 56.5769 375.64 56.5769C378.424 56.5769 380.504 58.4649 380.76 60.9929H370.232ZM388.52 48.1289C388.52 47.1049 387.752 46.3369 386.728 46.3369C385.736 46.3369 384.936 47.1049 384.936 48.1289C384.936 48.9289 385.416 49.5689 386.12 49.8249L384.712 53.6009H386.056L388.072 49.5689C388.36 48.9609 388.52 48.5449 388.52 48.1289ZM394.598 70.6569C398.086 70.6569 400.454 68.7369 400.454 66.1129C400.454 60.0969 391.11 62.5289 391.11 58.8489C391.11 57.3769 392.358 56.4169 394.278 56.4169C395.782 56.4169 397.798 57.0889 398.854 58.2409L399.942 56.4809C398.726 55.1689 396.582 54.4649 394.47 54.4649C391.078 54.4649 388.774 56.2889 388.774 59.0089C388.774 64.8009 398.086 62.1449 398.086 66.1769C398.086 67.6169 396.71 68.7049 394.566 68.7049C392.742 68.7049 390.598 67.8729 389.382 66.6569L388.326 68.4169C389.798 69.7609 392.262 70.6569 394.598 70.6569Z" fill="white"></path></g><defs><clipPath id="clip0_58_31"><rect width="416.563" height="131" fill="white"></rect></clipPath></defs></svg>